<?xml version="1.0" encoding="UTF-8"?>
<svg xmlns="http://www.w3.org/2000/svg" xmlns:xlink="http://www.w3.org/1999/xlink" width="500px" height="500px" viewBox="0 0 500 500" version="1.1">
<g id="surface1">
<path style=" stroke:none;fill-rule:nonzero;fill:rgb(52.54902%,4.313725%,9.411765%);fill-opacity:1;" d="M 175.300781 225.601562 C 175.898438 225.398438 176.300781 224.800781 176.101562 224.101562 C 176 223.5 175.5 223.101562 174.898438 223.101562 C 171.101562 223.398438 155.300781 225.199219 142.101562 217.898438 C 139.101562 218.800781 135.898438 219.601562 132.601562 220.300781 C 139.699219 225 148.300781 225.699219 154.101562 226.601562 C 164.199219 228.199219 172.398438 226.398438 175.300781 225.601562 Z M 175.300781 225.601562 "/>
<path style=" stroke:none;fill-rule:nonzero;fill:rgb(52.54902%,4.313725%,9.411765%);fill-opacity:1;" d="M 384.800781 318 C 334 373.398438 193.898438 402.800781 77.300781 326.101562 C 76.601562 325.699219 76 325.398438 75.5 326 C 74.898438 326.5 74.601562 327.699219 75.300781 328.199219 C 176 417.300781 387.699219 412.699219 426.300781 281 C 414.800781 294.300781 401 307 384.800781 318 Z M 384.800781 318 "/>
<path style=" stroke:none;fill-rule:nonzero;fill:rgb(52.54902%,4.313725%,9.411765%);fill-opacity:1;" d="M 400.398438 258.601562 C 410.5 248.101562 417.300781 237 421.699219 226 C 418.699219 190.5 398.601562 102.601562 281 78.699219 C 210.699219 64.398438 122.300781 89.5 109.199219 152.898438 C 104.199219 176.898438 114.199219 200 118.800781 204 C 122.398438 204.398438 125.898438 204.398438 129.398438 204.300781 C 127 201.5 125.898438 199.898438 124.5 195.898438 C 97 113.199219 205 79.699219 277.699219 96 C 385.300781 120 403.800781 216.398438 395.398438 263.699219 C 397.199219 261.898438 398.800781 260.300781 400.398438 258.601562 Z M 400.398438 258.601562 "/>
<path style=" stroke:none;fill-rule:nonzero;fill:rgb(52.54902%,4.313725%,9.411765%);fill-opacity:1;" d="M 114.300781 217.699219 C 139.699219 219.101562 164.101562 206 168.898438 202.300781 C 169.398438 201.898438 169.5 201.101562 169.199219 200.601562 C 168.898438 200.101562 168.199219 199.898438 167.699219 200.199219 C 162.699219 203.5 136.699219 211.699219 111.5 207.101562 C 84 202.101562 58.5 162.398438 81.601562 115.601562 C 100 78.300781 153.898438 46 208.699219 41.199219 C 311.300781 32.300781 377.601562 68.898438 416.601562 129.101562 C 431.601562 152.300781 452 213.5 404 263.898438 C 388.101562 280.601562 368.300781 294.898438 344.898438 305.898438 C 351.898438 310.101562 358.398438 314.199219 364 317.699219 C 365.800781 318.800781 367.601562 320 369.300781 321.101562 C 423.5 290.199219 451.699219 241.300781 456.101562 207.800781 C 470.699219 98.699219 349.398438 2.800781 201.101562 21.601562 C 133.699219 30.199219 81.101562 65.300781 60 108.699219 C 48.199219 133 49.601562 161.699219 61.898438 185 C 72.101562 204.199219 90.699219 216.398438 114.300781 217.699219 Z M 114.300781 217.699219 "/>
<path style=" stroke:none;fill-rule:nonzero;fill:rgb(52.54902%,4.313725%,9.411765%);fill-opacity:1;" d="M 316.199219 319.300781 C 253.300781 338.898438 169 336.300781 74.5 301.601562 C 73.898438 301.398438 73.300781 301.699219 73.101562 302.300781 C 72.898438 302.898438 73.199219 303.601562 73.699219 303.898438 C 190.800781 359.5 279.398438 358.5 341.699219 334.300781 C 332.5 328.898438 325.398438 324.699219 316.199219 319.300781 Z M 316.199219 319.300781 "/>
<path style=" stroke:none;fill-rule:nonzero;fill:rgb(52.54902%,4.313725%,9.411765%);fill-opacity:1;" d="M 457.5 393.199219 C 448.101562 383.101562 423.5 363.800781 393.5 343.300781 C 390 346.601562 386.300781 349.800781 382.398438 352.800781 C 415.300781 372.398438 443.898438 389 457 394 C 457.601562 394.199219 457.898438 393.601562 457.5 393.199219 Z M 457.5 393.199219 "/>
<path style=" stroke:none;fill-rule:nonzero;fill:rgb(52.54902%,4.313725%,9.411765%);fill-opacity:1;" d="M 147.199219 200.398438 C 147.898438 200.398438 148.300781 199.898438 148.398438 199.300781 C 148.601562 196 149.601562 185.398438 155.5 173.601562 C 162.101562 160.5 176.101562 142.199219 206.601562 135.699219 C 212.398438 134.5 258.800781 128 289.300781 158.699219 C 289.699219 159.101562 290 159.5 290.398438 159.898438 L 313.300781 159.898438 C 310.601562 154.601562 307 149.699219 302.5 145.300781 C 272.699219 115.601562 222.601562 120.199219 208.5 123.5 C 174.101562 131.398438 157.800781 148.398438 151.300781 164.800781 C 145.199219 180.101562 145.898438 195.300781 146 199.300781 C 146.101562 199.898438 146.601562 200.398438 147.199219 200.398438 Z M 147.199219 200.398438 "/>
<path style=" stroke:none;fill-rule:nonzero;fill:rgb(52.54902%,4.313725%,9.411765%);fill-opacity:1;" d="M 222.398438 259.800781 C 196.398438 254 180.199219 251.5 162 250.5 C 144.800781 249.601562 120.199219 255.601562 119.398438 263 C 118.898438 268 131.5 274.5 150.199219 277 C 182 281.199219 208 274.398438 222.398438 270.601562 Z M 212.398438 267.800781 C 197 269.800781 173.699219 274.300781 149.898438 271.5 C 142 270.601562 133.800781 266.699219 131.300781 266.101562 C 130.199219 265.800781 130.199219 264.199219 131.300781 263.898438 C 138.101562 262.199219 150.699219 261.199219 161.101562 261.199219 C 170.800781 261.199219 192.300781 262.398438 212.398438 265.699219 C 213.699219 265.800781 213.699219 267.699219 212.398438 267.800781 Z M 212.398438 267.800781 "/>
<path style=" stroke:none;fill-rule:nonzero;fill:rgb(52.54902%,4.313725%,9.411765%);fill-opacity:1;" d="M 245.300781 265.300781 C 244.199219 265.101562 244 263.5 245.101562 263.300781 C 272.101562 257.800781 305 238.199219 315.101562 212.898438 C 322 195.601562 321.800781 177.101562 314.101562 161.300781 L 291.800781 161.300781 C 303.300781 174.699219 305.398438 192.699219 298.101562 210.398438 C 288 234.699219 247.5 257.601562 235 262.5 C 234.800781 262.601562 234.601562 262.601562 234.300781 262.5 C 231.800781 261.898438 229.398438 261.300781 227 260.800781 L 227 269.398438 C 227.101562 269.398438 227.199219 269.300781 227.300781 269.300781 C 227.398438 269.300781 227.601562 269.300781 227.699219 269.300781 C 246.898438 272.300781 302.398438 304.898438 354.800781 336.199219 C 359.699219 333.101562 364.300781 329.898438 368.601562 326.5 C 322.898438 297.199219 272.199219 269.300781 245.300781 265.300781 Z M 245.300781 265.300781 "/>
<path style=" stroke:none;fill-rule:nonzero;fill:rgb(52.54902%,4.313725%,9.411765%);fill-opacity:1;" d="M 223.300781 159.898438 L 223.300781 170.199219 L 226.898438 170.199219 L 226.898438 311.199219 L 235.898438 311.199219 L 235.898438 159.898438 Z M 223.300781 159.898438 "/>
<path style=" stroke:none;fill-rule:nonzero;fill:rgb(52.54902%,4.313725%,9.411765%);fill-opacity:1;" d="M 142.898438 473.5 L 149.898438 426.800781 C 141.601562 436.601562 135.199219 444.300781 130.699219 450.101562 C 126.199219 455.898438 122.5 461.101562 119.5 465.601562 C 118.699219 465.300781 117.601562 464.800781 116.101562 464.101562 C 114.601562 463.398438 113.5 462.898438 112.601562 462.601562 C 111.699219 462.300781 110.5 462 108.800781 461.699219 C 107.101562 461.398438 105.898438 461.101562 105.101562 460.800781 L 104.101562 411.5 C 100.601562 417.398438 96.699219 424.300781 92.5 432.101562 C 88.199219 439.898438 84.601562 446.898438 81.5 453 L 76.398438 451.300781 L 71.398438 449.601562 C 77.601562 440.398438 83.898438 431.101562 90.199219 421.601562 C 96.5 412.101562 102.601562 402.5 108.601562 392.898438 C 109.398438 393.199219 110.5 393.601562 112 394.300781 C 113.5 395 114.601562 395.5 115.398438 395.699219 C 116.199219 396 117.5 396.300781 119.300781 396.699219 C 121.101562 397.101562 122.199219 397.300781 122.398438 397.398438 L 123.800781 445 C 133.699219 432.601562 143.699219 420.300781 153.800781 407.800781 C 154.601562 408.101562 155.699219 408.5 157.199219 409.199219 C 158.699219 409.898438 159.800781 410.398438 160.699219 410.699219 C 161.5 411 162.699219 411.300781 164.300781 411.601562 C 165.898438 411.898438 167.101562 412.199219 167.898438 412.5 C 166.101562 425.800781 164.800781 436.898438 163.898438 445.800781 C 162.800781 457.300781 162.199219 468.601562 162 479.699219 C 161 479.398438 159.5 478.699219 157.5 477.800781 C 155.5 476.898438 154 476.300781 152.898438 475.898438 C 151.898438 475.601562 150.199219 475.101562 148 474.601562 C 145.5 474.300781 143.898438 473.898438 142.898438 473.5 Z M 142.898438 473.5 "/>
<path style=" stroke:none;fill-rule:nonzero;fill:rgb(52.54902%,4.313725%,9.411765%);fill-opacity:1;" d="M 178.699219 430 L 184.699219 416.199219 C 185.199219 415 185.800781 413.800781 186.300781 412.699219 C 186.800781 411.5 187.5 410.398438 188.199219 409.101562 C 189 407.898438 189.800781 407.101562 190.601562 406.601562 C 191.5 406.199219 192.5 406.101562 193.800781 406.300781 C 195.300781 406.601562 196.398438 407.300781 197.199219 408.398438 C 198 409.5 198.300781 410.800781 198.101562 412.101562 C 198 412.898438 197.5 413.699219 196.898438 414.5 C 194.300781 417.199219 191.5 420.101562 188.699219 422.898438 C 187.5 424.101562 184.699219 426.898438 180.300781 431.199219 Z M 178.699219 430 "/>
<path style=" stroke:none;fill-rule:nonzero;fill:rgb(52.54902%,4.313725%,9.411765%);fill-opacity:1;" d="M 200.699219 483.898438 C 198.898438 483.800781 197 483.800781 194.898438 483.800781 C 192.898438 483.800781 191 483.898438 189.300781 484 C 192.699219 480.101562 196.5 475.699219 200.5 470.800781 C 205.5 464.699219 209.300781 460.101562 211.898438 456.898438 C 207.699219 456 204 453.898438 200.898438 450.800781 C 196.800781 446.800781 194.898438 442.101562 195.199219 436.601562 C 195.5 430.601562 198 426.199219 202.898438 423.5 C 207.699219 420.800781 214.101562 419.601562 221.898438 420 L 251.5 421.398438 L 248.398438 486.800781 C 247.101562 486.601562 245.601562 486.300781 244.101562 486.199219 C 242.601562 486 241.101562 485.898438 239.601562 485.898438 C 238 485.800781 236.300781 485.800781 234.601562 485.800781 C 232.898438 485.800781 231.199219 485.898438 229.699219 486.101562 L 231 458.5 L 230.300781 458.5 C 228.101562 461.199219 225.101562 465.300781 221.300781 470.699219 C 217.898438 475.5 214.601562 480.398438 211.300781 485.199219 C 209.699219 484.898438 207.898438 484.699219 206 484.5 C 204.199219 484.101562 202.398438 483.898438 200.699219 483.898438 Z M 231.398438 451.300781 L 232.5 427.898438 L 228.300781 427.699219 C 224.300781 427.5 221 428.300781 218.398438 430.101562 C 215.800781 431.898438 214.398438 434.601562 214.199219 438.101562 C 214 442 215.199219 445.199219 217.800781 447.398438 C 220.398438 449.699219 223.5 450.898438 227.199219 451.101562 Z M 231.398438 451.300781 "/>
<path style=" stroke:none;fill-rule:nonzero;fill:rgb(52.54902%,4.313725%,9.411765%);fill-opacity:1;" d="M 318.398438 421.601562 L 314.199219 436 L 311.101562 436.199219 C 310.300781 432.199219 308.699219 429 306.300781 426.601562 C 303.601562 424 300.300781 422.800781 296.300781 423 C 290.601562 423.398438 286.5 426.800781 283.898438 433.300781 C 281.898438 438.398438 281.101562 444.300781 281.5 450.800781 C 282.101562 459.300781 284.101562 465.699219 287.601562 470.101562 C 291.101562 474.5 296.5 476.398438 303.601562 476 C 306.300781 475.800781 308.898438 475.101562 311.398438 473.800781 C 313.898438 472.5 315.898438 470.800781 317.398438 468.699219 L 319.800781 470.398438 L 316.898438 478.601562 C 315.398438 480.300781 312.699219 481.800781 309 483 C 305.199219 484.199219 302 484.898438 299.199219 485.101562 C 288.5 485.800781 279.800781 483.601562 273.101562 478.398438 C 266.101562 473 262.300781 465.101562 261.601562 454.699219 C 260.898438 443.898438 263.601562 435.101562 269.601562 428.300781 C 275.601562 421.5 284 417.800781 294.898438 417.101562 C 299 416.800781 303.199219 417 307.300781 417.699219 C 311.398438 418.5 315.101562 419.699219 318.398438 421.601562 Z M 318.398438 421.601562 "/>
<path style=" stroke:none;fill-rule:nonzero;fill:rgb(52.54902%,4.313725%,9.411765%);fill-opacity:1;" d="M 372.199219 472.5 C 362.5 475.398438 353.800781 475 346 471.101562 C 338.199219 467.300781 332.898438 460.601562 330.101562 451.101562 C 327 440.898438 327.5 431.800781 331.601562 423.800781 C 335.699219 415.800781 342.699219 410.300781 352.5 407.300781 C 362.398438 404.300781 371.300781 404.699219 379.101562 408.398438 C 386.898438 412.101562 392.199219 418.800781 395.101562 428.398438 C 398.101562 438.300781 397.5 447.398438 393.398438 455.601562 C 389.300781 463.898438 382.199219 469.5 372.199219 472.5 Z M 355.199219 412.699219 C 350.300781 414.199219 347.398438 418 346.5 424.199219 C 345.800781 429.601562 346.699219 436.5 349.199219 444.898438 C 351 451 353.398438 456 356.5 460.101562 C 360.800781 466 365.5 468.101562 370.5 466.601562 C 375.199219 465.199219 377.800781 460.800781 378.300781 453.5 C 378.800781 447.199219 377.800781 440 375.300781 431.898438 C 373.300781 425.199219 370.5 420 366.898438 416.300781 C 363.300781 412.601562 359.398438 411.398438 355.199219 412.699219 Z M 355.199219 412.699219 "/>
</g>
</svg>
