<?xml version="1.0" standalone="no"?>
<!DOCTYPE svg PUBLIC "-//W3C//DTD SVG 20010904//EN"
 "http://www.w3.org/TR/2001/REC-SVG-20010904/DTD/svg10.dtd">
<svg version="1.0" xmlns="http://www.w3.org/2000/svg"
 width="700.000000pt" height="700.000000pt" viewBox="0 0 700.000000 700.000000"
 preserveAspectRatio="xMidYMid meet">
<metadata>
Created by potrace 1.14, written by Peter Selinger 2001-2017
</metadata>
<g transform="translate(0.000000,700.000000) scale(0.100000,-0.100000)"
fill="#000000" stroke="none">
<path d="M3015 6719 c-33 -3 -91 -10 -130 -13 -38 -4 -110 -13 -160 -22 -49
-8 -103 -17 -120 -20 -16 -3 -37 -7 -45 -9 -8 -2 -28 -7 -45 -9 -72 -13 -297
-80 -423 -127 -579 -216 -1040 -599 -1249 -1039 -55 -115 -87 -221 -108 -355
-7 -49 -8 -259 0 -300 3 -16 10 -55 15 -86 14 -75 55 -199 96 -285 123 -259
352 -436 634 -489 19 -4 87 -8 150 -10 202 -5 405 43 616 146 109 53 134 73
117 90 -8 8 -18 6 -34 -4 -35 -22 -181 -64 -289 -83 -114 -20 -374 -23 -470
-5 -207 39 -402 215 -489 440 -54 139 -76 327 -56 466 20 141 82 320 152 440
174 299 523 586 932 765 179 78 463 165 604 185 23 3 49 8 57 10 33 9 208 24
345 30 289 13 635 -3 840 -40 424 -76 751 -196 1060 -388 404 -252 768 -658
930 -1037 133 -310 165 -674 89 -985 -85 -344 -280 -626 -627 -906 -151 -122
-300 -219 -494 -319 l-82 -42 166 -104 c91 -57 170 -104 174 -104 25 0 257
156 379 253 105 85 333 316 411 417 305 393 443 762 439 1175 -1 98 -3 125
-15 235 -30 260 -152 579 -319 835 -110 167 -310 395 -455 515 -30 25 -59 50
-65 55 -53 47 -209 157 -325 229 -340 210 -802 382 -1193 446 -35 5 -72 12
-83 14 -22 4 -188 26 -250 33 -73 7 -619 10 -680 2z"/>
<path d="M3348 5955 c-2 -1 -61 -5 -133 -9 -71 -3 -140 -8 -152 -10 -12 -3
-48 -7 -80 -11 -216 -23 -582 -134 -753 -228 -19 -10 -53 -29 -75 -40 -42 -23
-194 -128 -234 -162 -187 -159 -320 -363 -379 -580 -24 -88 -27 -118 -26 -250
0 -120 5 -168 22 -238 27 -109 75 -227 107 -261 22 -23 31 -26 96 -26 68 0 71
1 57 18 -69 77 -119 296 -112 487 3 112 6 125 35 221 59 191 213 385 409 516
242 162 594 278 950 315 151 16 576 8 650 -12 8 -2 35 -7 60 -10 122 -16 394
-98 550 -164 529 -226 926 -660 1106 -1210 49 -149 83 -304 101 -456 10 -81
10 -373 0 -460 l-7 -70 69 72 c60 61 142 166 189 238 21 34 110 213 107 217
-2 2 -6 30 -9 63 -41 398 -222 840 -471 1150 -218 272 -511 493 -850 640 -71
31 -139 61 -150 66 -100 45 -513 149 -653 165 -29 3 -63 7 -75 10 -12 2 -76 7
-142 10 -66 3 -139 6 -162 8 -24 1 -44 2 -45 1z"/>
<path d="M3178 5305 c-2 -2 -38 -5 -80 -9 -256 -22 -524 -119 -707 -257 -173
-130 -276 -294 -321 -514 -26 -121 -34 -309 -15 -325 15 -13 21 -1 30 70 42
318 256 607 549 744 166 77 309 105 525 101 352 -5 632 -103 848 -298 l62 -55
156 -1 c178 -1 170 -7 109 85 -73 110 -221 236 -359 306 -188 96 -410 145
-682 152 -62 2 -114 2 -115 1z"/>
<path d="M3129 4753 c-1 -17 -1 -109 0 -127 1 -7 11 -13 24 -12 l22 1 1 -960
c1 -528 2 -972 3 -986 1 -26 3 -27 61 -27 38 0 60 5 61 12 0 6 1 131 1 278 l1
267 51 -20 c128 -51 269 -119 526 -256 162 -87 749 -426 1002 -579 l86 -53 89
63 c48 34 88 67 88 73 0 7 -65 53 -145 102 -80 50 -152 95 -160 100 -8 6 -91
54 -185 109 -487 285 -862 460 -1124 527 -94 24 -128 40 -100 49 8 2 43 11 79
20 125 32 311 110 405 169 150 94 265 186 335 267 25 29 50 58 56 64 6 6 28
41 51 78 129 215 159 519 73 753 -13 33 -26 64 -30 69 -7 7 -165 11 -288 7
-23 -1 -23 -1 8 -47 150 -218 148 -509 -6 -745 -99 -150 -305 -331 -547 -478
-69 -42 -219 -123 -248 -133 -15 -6 -16 54 -16 703 0 390 -2 711 -5 714 -3 3
-42 6 -86 8 -60 1 -82 -1 -83 -10z"/>
<path d="M1923 3933 c-34 -9 -60 -19 -57 -24 7 -13 112 -49 188 -65 149 -32
386 -27 407 8 5 7 6 14 3 17 -2 2 -54 4 -115 4 -122 -1 -250 22 -318 56 -22
12 -42 21 -43 20 -2 0 -31 -8 -65 -16z"/>
<path d="M2167 3494 c-1 -1 -34 -4 -73 -7 -212 -17 -424 -104 -424 -175 0 -23
54 -73 108 -101 47 -24 185 -67 243 -76 79 -13 93 -15 169 -22 137 -13 406 -6
515 12 121 20 139 24 236 45 121 26 169 40 170 48 6 43 2 135 -6 141 -5 5 -23
11 -40 14 -16 4 -75 16 -130 27 -55 11 -116 23 -135 26 -19 3 -42 7 -50 9 -8
3 -33 7 -55 10 -22 4 -51 8 -65 10 -145 24 -451 49 -463 39z m253 -158 c146
-6 184 -9 275 -20 28 -3 73 -8 100 -11 28 -3 61 -7 75 -10 14 -2 42 -7 64 -10
73 -10 72 -30 -2 -40 -26 -4 -58 -8 -72 -10 -14 -2 -47 -7 -75 -10 -27 -3 -61
-8 -75 -10 -14 -2 -56 -7 -95 -11 -38 -4 -83 -8 -100 -10 -54 -6 -329 -5 -385
1 -118 14 -293 72 -298 98 -2 12 4 17 20 18 13 0 34 2 48 5 14 2 39 6 55 9 17
3 89 8 160 12 72 3 132 7 133 9 2 1 9 1 15 -1 7 -2 77 -6 157 -9z"/>
<path d="M5835 2926 c-123 -126 -244 -231 -374 -326 -41 -30 -104 -83 -140
-118 -318 -308 -890 -564 -1446 -647 -22 -4 -51 -8 -65 -11 -14 -2 -52 -7 -85
-10 -33 -3 -71 -7 -85 -10 -130 -22 -625 -22 -785 1 -16 2 -55 6 -85 10 -523
55 -1141 274 -1612 571 -82 52 -108 59 -108 31 0 -24 240 -204 415 -312 372
-230 901 -421 1350 -489 298 -45 377 -51 670 -51 240 0 359 7 505 30 19 3 53
7 75 10 36 4 74 11 165 29 388 79 768 243 1045 449 316 237 542 541 665 895
12 35 20 65 18 67 -1 1 -57 -52 -123 -119z"/>
<path d="M1027 2774 c-4 -4 -7 -10 -7 -14 0 -27 719 -324 940 -388 19 -6 87
-26 150 -45 63 -20 187 -54 275 -75 141 -35 193 -47 295 -67 46 -9 195 -34
235 -39 22 -3 56 -7 75 -10 200 -30 646 -42 878 -24 288 23 645 103 886 197
l29 12 -69 41 c-38 22 -83 48 -100 58 -16 10 -66 38 -110 63 l-79 46 -105 -30
c-143 -41 -408 -92 -535 -104 -33 -4 -65 -8 -72 -10 -81 -26 -849 -26 -1016 0
-12 2 -53 6 -92 10 -38 4 -72 8 -75 10 -3 1 -36 6 -75 10 -38 4 -72 8 -75 10
-3 2 -23 6 -45 9 -261 41 -563 110 -835 192 -80 25 -417 135 -451 149 -8 3
-18 2 -22 -1z"/>
<path d="M5433 2128 c-40 -33 -70 -64 -68 -68 4 -7 204 -129 270 -166 11 -6
45 -26 75 -44 221 -131 599 -334 672 -359 28 -10 29 -9 17 7 -39 49 -256 235
-414 353 -237 178 -447 327 -469 335 -6 1 -44 -24 -83 -58z"/>
<path d="M1482 1439 c-20 -34 -137 -213 -259 -398 l-222 -336 66 -22 c36 -13
69 -20 74 -18 4 3 26 42 49 87 71 140 259 478 266 478 2 0 4 -12 3 -27 -3 -44
12 -648 16 -651 2 -2 29 -10 61 -19 33 -8 76 -23 97 -33 l37 -18 23 31 c104
142 153 207 231 302 49 61 98 119 107 130 10 11 29 34 43 50 l25 30 -5 -27
c-2 -15 -20 -134 -39 -265 -19 -131 -37 -249 -40 -263 -3 -14 -7 -42 -10 -62
-4 -34 -2 -38 23 -44 84 -19 113 -28 170 -51 34 -14 64 -24 66 -22 2 2 7 74
10 159 4 85 8 171 10 190 3 19 7 69 11 110 8 99 28 273 40 350 2 14 7 49 10
78 5 45 4 52 -12 52 -16 0 -122 35 -164 54 -13 5 -57 -44 -195 -214 -98 -122
-188 -234 -199 -250 -36 -54 -45 -47 -46 38 0 42 -2 154 -5 247 -3 94 -7 206
-7 250 l-2 80 -45 11 c-25 6 -69 21 -98 32 l-52 22 -38 -61z"/>
<path d="M5045 1322 c-114 -13 -276 -90 -337 -160 -103 -118 -137 -282 -93
-452 67 -260 279 -391 545 -336 203 42 341 171 384 357 39 165 -23 375 -143
487 -84 78 -225 120 -356 104z m28 -106 c122 -52 231 -319 222 -541 -4 -87 -9
-108 -34 -148 -26 -41 -54 -58 -105 -62 -120 -9 -237 152 -291 400 -4 17 -9
71 -12 120 -4 75 -1 98 15 136 38 88 126 129 205 95z"/>
<path d="M2659 1298 c-23 -19 -42 -54 -85 -153 -21 -50 -46 -106 -55 -125 -18
-36 -17 -50 5 -50 6 0 65 54 129 120 103 106 117 124 117 154 0 25 -7 39 -22
50 -27 19 -69 21 -89 4z"/>
<path d="M4115 1159 c-190 -18 -336 -109 -405 -254 -37 -78 -49 -149 -45 -260
9 -224 128 -373 338 -424 106 -25 261 -11 362 34 61 27 70 37 94 107 18 53 18
55 0 66 -15 9 -21 8 -31 -6 -73 -100 -280 -114 -377 -27 -124 113 -148 455
-42 604 70 98 223 102 295 9 14 -19 32 -52 39 -73 26 -75 50 -56 87 69 l28 97
-35 14 c-91 38 -199 54 -308 44z"/>
<path d="M2913 1101 c-127 -43 -177 -107 -177 -226 0 -105 38 -167 143 -236
25 -16 53 -29 63 -29 32 0 37 6 -180 -255 -9 -11 -38 -45 -64 -75 l-46 -55
111 -3 c62 -1 132 -3 156 -5 l45 -2 68 100 c125 182 191 266 199 253 4 -6 6
-15 4 -18 -2 -3 -6 -75 -10 -160 -4 -85 -9 -158 -11 -162 -2 -3 -2 -12 1 -20
4 -10 37 -13 135 -15 l130 -1 1 51 c0 29 2 75 4 102 1 28 5 115 9 195 3 80 9
183 11 230 3 47 7 140 10 208 l6 122 -33 1 c-18 1 -44 3 -58 4 -14 2 -124 5
-245 8 -194 5 -226 4 -272 -12z m337 -181 c-1 -47 -4 -112 -6 -145 -1 -33 -3
-68 -3 -77 -1 -15 -9 -17 -53 -13 -63 6 -135 40 -162 77 -30 41 -33 133 -6
176 30 48 90 73 169 69 l64 -2 -3 -85z"/>
</g>
</svg>
