<svg version="1.1" id="Слой_1" xmlns="http://www.w3.org/2000/svg" x="0" y="0" viewBox="0 0 500 500" xml:space="preserve"><style>.st12{fill:#860b18}</style><path class="st12" d="M175.3 225.6c.6-.2 1-.8.8-1.5-.1-.6-.6-1-1.2-1-3.8.3-19.6 2.1-32.8-5.2-3 .9-6.2 1.7-9.5 2.4 7.1 4.7 15.7 5.4 21.5 6.3 10.1 1.6 18.3-.2 21.2-1zM384.8 318c-50.8 55.4-190.9 84.8-307.5 8.1-.7-.4-1.3-.7-1.8-.1-.6.5-.9 1.7-.2 2.2 100.7 89.1 312.4 84.5 351-47.2-11.5 13.3-25.3 26-41.5 37zm15.6-59.4c10.1-10.5 16.9-21.6 21.3-32.6-3-35.5-23.1-123.4-140.7-147.3-70.3-14.3-158.7 10.8-171.8 74.2-5 24 5 47.1 9.6 51.1 3.6.4 7.1.4 10.6.3-2.4-2.8-3.5-4.4-4.9-8.4C97 113.2 205 79.7 277.7 96c107.6 24 126.1 120.4 117.7 167.7 1.8-1.8 3.4-3.4 5-5.1z"/><path class="st12" d="M114.3 217.7c25.4 1.4 49.8-11.7 54.6-15.4.5-.4.6-1.2.3-1.7s-1-.7-1.5-.4c-5 3.3-31 11.5-56.2 6.9-27.5-5-53-44.7-29.9-91.5C100 78.3 153.9 46 208.7 41.2c102.6-8.9 168.9 27.7 207.9 87.9 15 23.2 35.4 84.4-12.6 134.8-15.9 16.7-35.7 31-59.1 42 7 4.2 13.5 8.3 19.1 11.8 1.8 1.1 3.6 2.3 5.3 3.4 54.2-30.9 82.4-79.8 86.8-113.3 14.6-109.1-106.7-205-255-186.2-67.4 8.6-120 43.7-141.1 87.1-11.8 24.3-10.4 53 1.9 76.3 10.2 19.2 28.8 31.4 52.4 32.7zm201.9 101.6c-62.9 19.6-147.2 17-241.7-17.7-.6-.2-1.2.1-1.4.7-.2.6.1 1.3.6 1.6 117.1 55.6 205.7 54.6 268 30.4-9.2-5.4-16.3-9.6-25.5-15zm141.3 73.9c-9.4-10.1-34-29.4-64-49.9-3.5 3.3-7.2 6.5-11.1 9.5 32.9 19.6 61.5 36.2 74.6 41.2.6.2.9-.4.5-.8z"/><path class="st12" d="M147.2 200.4c.7 0 1.1-.5 1.2-1.1.2-3.3 1.2-13.9 7.1-25.7 6.6-13.1 20.6-31.4 51.1-37.9 5.8-1.2 52.2-7.7 82.7 23 .4.4.7.8 1.1 1.2h22.9c-2.7-5.3-6.3-10.2-10.8-14.6-29.8-29.7-79.9-25.1-94-21.8-34.4 7.9-50.7 24.9-57.2 41.3-6.1 15.3-5.4 30.5-5.3 34.5.1.6.6 1.1 1.2 1.1zm75.2 59.4c-26-5.8-42.2-8.3-60.4-9.3-17.2-.9-41.8 5.1-42.6 12.5-.5 5 12.1 11.5 30.8 14 31.8 4.2 57.8-2.6 72.2-6.4v-10.8zm-10 8c-15.4 2-38.7 6.5-62.5 3.7-7.9-.9-16.1-4.8-18.6-5.4-1.1-.3-1.1-1.9 0-2.2 6.8-1.7 19.4-2.7 29.8-2.7 9.7 0 31.2 1.2 51.3 4.5 1.3.1 1.3 2 0 2.1z"/><path class="st12" d="M245.3 265.3c-1.1-.2-1.3-1.8-.2-2 27-5.5 59.9-25.1 70-50.4 6.9-17.3 6.7-35.8-1-51.6h-22.3c11.5 13.4 13.6 31.4 6.3 49.1-10.1 24.3-50.6 47.2-63.1 52.1-.2.1-.4.1-.7 0-2.5-.6-4.9-1.2-7.3-1.7v8.6c.1 0 .2-.1.3-.1h.4c19.2 3 74.7 35.6 127.1 66.9 4.9-3.1 9.5-6.3 13.8-9.7-45.7-29.3-96.4-57.2-123.3-61.2z"/><path class="st12" d="M223.3 159.9v10.3h3.6v141h9V159.9zm-80.4 313.6l7-46.7c-8.3 9.8-14.7 17.5-19.2 23.3-4.5 5.8-8.2 11-11.2 15.5-.8-.3-1.9-.8-3.4-1.5s-2.6-1.2-3.5-1.5c-.9-.3-2.1-.6-3.8-.9-1.7-.3-2.9-.6-3.7-.9l-1-49.3c-3.5 5.9-7.4 12.8-11.6 20.6-4.3 7.8-7.9 14.8-11 20.9l-5.1-1.7-5-1.7c6.2-9.2 12.5-18.5 18.8-28 6.3-9.5 12.4-19.1 18.4-28.7.8.3 1.9.7 3.4 1.4s2.6 1.2 3.4 1.4c.8.3 2.1.6 3.9 1 1.8.4 2.9.6 3.1.7l1.4 47.6c9.9-12.4 19.9-24.7 30-37.2.8.3 1.9.7 3.4 1.4s2.6 1.2 3.5 1.5c.8.3 2 .6 3.6.9 1.6.3 2.8.6 3.6.9-1.8 13.3-3.1 24.4-4 33.3-1.1 11.5-1.7 22.8-1.9 33.9-1-.3-2.5-1-4.5-1.9-2-.9-3.5-1.5-4.6-1.9-1-.3-2.7-.8-4.9-1.3-2.5-.3-4.1-.7-5.1-1.1zm35.8-43.5l6-13.8c.5-1.2 1.1-2.4 1.6-3.5.5-1.2 1.2-2.3 1.9-3.6.8-1.2 1.6-2 2.4-2.5.9-.4 1.9-.5 3.2-.3 1.5.3 2.6 1 3.4 2.1.8 1.1 1.1 2.4.9 3.7-.1.8-.6 1.6-1.2 2.4-2.6 2.7-5.4 5.6-8.2 8.4-1.2 1.2-4 4-8.4 8.3l-1.6-1.2zm22 53.9c-1.8-.1-3.7-.1-5.8-.1-2 0-3.9.1-5.6.2 3.4-3.9 7.2-8.3 11.2-13.2 5-6.1 8.8-10.7 11.4-13.9-4.2-.9-7.9-3-11-6.1-4.1-4-6-8.7-5.7-14.2.3-6 2.8-10.4 7.7-13.1 4.8-2.7 11.2-3.9 19-3.5l29.6 1.4-3.1 65.4c-1.3-.2-2.8-.5-4.3-.6-1.5-.2-3-.3-4.5-.3-1.6-.1-3.3-.1-5-.1-1.7 0-3.4.1-4.9.3l1.3-27.6h-.7c-2.2 2.7-5.2 6.8-9 12.2-3.4 4.8-6.7 9.7-10 14.5-1.6-.3-3.4-.5-5.3-.7-1.8-.4-3.6-.6-5.3-.6zm30.7-32.6l1.1-23.4-4.2-.2c-4-.2-7.3.6-9.9 2.4-2.6 1.8-4 4.5-4.2 8-.2 3.9 1 7.1 3.6 9.3 2.6 2.3 5.7 3.5 9.4 3.7l4.2.2zm87-29.7l-4.2 14.4-3.1.2c-.8-4-2.4-7.2-4.8-9.6-2.7-2.6-6-3.8-10-3.6-5.7.4-9.8 3.8-12.4 10.3-2 5.1-2.8 11-2.4 17.5.6 8.5 2.6 14.9 6.1 19.3s8.9 6.3 16 5.9c2.7-.2 5.3-.9 7.8-2.2 2.5-1.3 4.5-3 6-5.1l2.4 1.7-2.9 8.2c-1.5 1.7-4.2 3.2-7.9 4.4-3.8 1.2-7 1.9-9.8 2.1-10.7.7-19.4-1.5-26.1-6.7-7-5.4-10.8-13.3-11.5-23.7-.7-10.8 2-19.6 8-26.4 6-6.8 14.4-10.5 25.3-11.2 4.1-.3 8.3-.1 12.4.6 4.1.8 7.8 2 11.1 3.9zm53.8 50.9c-9.7 2.9-18.4 2.5-26.2-1.4-7.8-3.8-13.1-10.5-15.9-20-3.1-10.2-2.6-19.3 1.5-27.3s11.1-13.5 20.9-16.5c9.9-3 18.8-2.6 26.6 1.1 7.8 3.7 13.1 10.4 16 20 3 9.9 2.4 19-1.7 27.2-4.1 8.3-11.2 13.9-21.2 16.9zm-17-59.8c-4.9 1.5-7.8 5.3-8.7 11.5-.7 5.4.2 12.3 2.7 20.7 1.8 6.1 4.2 11.1 7.3 15.2 4.3 5.9 9 8 14 6.5 4.7-1.4 7.3-5.8 7.8-13.1.5-6.3-.5-13.5-3-21.6-2-6.7-4.8-11.9-8.4-15.6-3.6-3.7-7.5-4.9-11.7-3.6z"/></svg>