<?xml version="1.0" encoding="utf-8"?><svg viewBox="0 0 66 60" xmlns="http://www.w3.org/2000/svg" xmlns:xlink="http://www.w3.org/1999/xlink"><style>:root>svg{display:none}:root>svg:target{display:block}</style><svg fill="none" viewBox="0 0 66 18" id="arrow" xmlns="http://www.w3.org/2000/svg"><path d="M66 9 50.869.572l.266 17.318L66 9zM1.023 11.5l51.502-.793-.047-3L.977 8.5l.046 3z" fill="#fff"/></svg><svg fill="none" viewBox="0 0 6 10" id="chevron" xmlns="http://www.w3.org/2000/svg"><path d="M5.722 4.683.718.123a.422.422 0 0 0-.595 0 .417.417 0 0 0 0 .591L4.826 5 .124 9.286a.417.417 0 0 0 0 .591.42.42 0 0 0 .594 0l5.004-4.56A.412.412 0 0 0 5.842 5a.416.416 0 0 0-.12-.317z" fill="#C1C1C1"/></svg><svg fill="none" viewBox="0 0 60 60" id="facebook" xmlns="http://www.w3.org/2000/svg"><g clip-path="url(#ca)"><path fill-rule="evenodd" clip-rule="evenodd" d="M30 0C13.431 0 0 13.431 0 30c0 16.569 13.431 30 30 30 16.569 0 30-13.431 30-30C60 13.431 46.569 0 30 0zm3.127 31.318v16.321h-6.753V31.32H23v-5.625h3.374v-3.377c0-4.588 1.905-7.317 7.317-7.317h4.507v5.625H35.38c-2.107 0-2.246.786-2.246 2.253l-.008 2.815h5.102l-.597 5.625h-4.505z" fill="#fff"/></g><defs><clipPath id="ca"><path fill="#fff" d="M0 0h60v60H0z"/></clipPath></defs></svg><svg fill="none" viewBox="0 0 60 60" id="instagram" xmlns="http://www.w3.org/2000/svg"><g clip-path="url(#da)" fill="#fff"><path fill-rule="evenodd" clip-rule="evenodd" d="M30 0C13.431 0 0 13.431 0 30c0 16.569 13.431 30 30 30 16.569 0 30-13.431 30-30C60 13.431 46.569 0 30 0zm-6.596 14.097c1.707-.078 2.252-.097 6.598-.097h-.005c4.346 0 4.89.019 6.596.097 1.704.078 2.867.347 3.887.743a7.822 7.822 0 0 1 2.833 1.845 7.852 7.852 0 0 1 1.847 2.834c.393 1.018.663 2.18.743 3.884C45.98 25.11 46 25.655 46 30c0 4.346-.02 4.89-.097 6.596-.08 1.703-.35 2.866-.743 3.884a7.853 7.853 0 0 1-1.847 2.834 7.83 7.83 0 0 1-2.832 1.846c-1.018.396-2.182.666-3.885.744-1.707.077-2.25.096-6.596.096s-4.89-.019-6.597-.096c-1.703-.078-2.866-.348-3.884-.744a7.836 7.836 0 0 1-2.834-1.846 7.838 7.838 0 0 1-1.845-2.835c-.395-1.017-.665-2.18-.743-3.883C14.019 34.889 14 34.346 14 30c0-4.345.02-4.89.096-6.598.077-1.702.347-2.865.744-3.883a7.855 7.855 0 0 1 1.846-2.834 7.835 7.835 0 0 1 2.835-1.845c1.017-.396 2.18-.665 3.883-.743z"/><path fill-rule="evenodd" clip-rule="evenodd" d="M28.566 16.883h1.436c4.272 0 4.778.016 6.465.092 1.56.072 2.407.332 2.97.551.747.29 1.28.637 1.84 1.197s.906 1.094 1.197 1.84c.219.564.48 1.41.55 2.97.077 1.687.094 2.194.094 6.463 0 4.27-.017 4.777-.093 6.464-.072 1.56-.332 2.407-.551 2.97a4.947 4.947 0 0 1-1.198 1.838c-.56.56-1.091.907-1.838 1.197-.564.22-1.411.48-2.971.551-1.687.077-2.193.093-6.465.093-4.273 0-4.78-.016-6.466-.093-1.56-.072-2.407-.333-2.97-.552a4.957 4.957 0 0 1-1.84-1.196 4.96 4.96 0 0 1-1.198-1.84c-.22-.563-.48-1.41-.551-2.97-.077-1.686-.092-2.193-.092-6.465 0-4.273.015-4.777.092-6.464.071-1.56.332-2.407.55-2.97.29-.747.638-1.28 1.198-1.84a4.967 4.967 0 0 1 1.84-1.198c.564-.22 1.411-.48 2.971-.552 1.476-.066 2.048-.086 5.03-.09v.004zm9.976 2.657a1.92 1.92 0 1 0 0 3.84 1.92 1.92 0 0 0 0-3.84zM21.785 30a8.217 8.217 0 1 1 16.434 0 8.217 8.217 0 0 1-16.434 0z"/><path d="M30.002 24.667a5.333 5.333 0 1 1 0 10.667 5.333 5.333 0 0 1 0-10.667z"/></g><defs><clipPath id="da"><path fill="#fff" d="M0 0h60v60H0z"/></clipPath></defs></svg><svg fill="none" viewBox="0 0 60 60" id="messenger" xmlns="http://www.w3.org/2000/svg"><g clip-path="url(#ea)" fill="#fff"><path fill-rule="evenodd" clip-rule="evenodd" d="M0 30c0 16.569 13.431 30 30 30 16.569 0 30-13.431 30-30C60 13.431 46.569 0 30 0 13.431 0 0 13.431 0 30zm18.572 17.955v-6.403C14.562 38.5 12 33.852 12 28.646 12 19.453 19.988 12 29.84 12c9.854 0 17.841 7.453 17.841 16.646 0 9.193-7.986 16.646-17.84 16.646a19.1 19.1 0 0 1-5.282-.74l-5.987 3.403z"/><path d="m27.936 24.087-9.622 10.187 8.756-4.805 4.575 4.805 9.568-10.187-8.66 4.72-4.617-4.72z"/></g><defs><clipPath id="ea"><path fill="#fff" d="M0 0h60v60H0z"/></clipPath></defs></svg><svg fill="none" viewBox="0 0 20 24" id="name-icon" xmlns="http://www.w3.org/2000/svg"><path d="M12.382 10.032c1.455.488 2.77 1.394 3.836 2.661 1.686 2.004 2.607 4.764 2.607 7.769a.568.568 0 0 1-.275.486c-.165.099-3.864 2.284-8.738 2.284-4.501 0-8.543-2.178-8.716-2.273l11.286-10.927zm0 0a4.973 4.973 0 1 0-5.14 0h5.14zM5.973 5.774a3.839 3.839 0 1 1 7.679 0 3.839 3.839 0 0 1-7.679 0zm-1.698 7.65c1.456-1.73 3.422-2.677 5.537-2.677 2.116 0 4.083.947 5.538 2.677 1.444 1.715 2.272 4.083 2.336 6.705-.932.49-4.06 1.968-7.873 1.968-3.528 0-6.869-1.49-7.874-1.981.067-2.616.895-4.98 2.336-6.692z" fill="#89101D" stroke="#fff" stroke-width=".4"/></svg><svg fill="none" viewBox="0 0 60 60" id="telegram" xmlns="http://www.w3.org/2000/svg"><g clip-path="url(#ga)"><path fill-rule="evenodd" clip-rule="evenodd" d="M0 30c0 16.569 13.431 30 30 30 16.569 0 30-13.431 30-30C60 13.431 46.569 0 30 0 13.431 0 0 13.431 0 30zm24.5 13.75.51-7.647 13.911-12.554c.61-.542-.133-.806-.944-.315L20.81 34.065l-7.416-2.314c-1.601-.49-1.613-1.591.36-2.382L42.65 18.226c1.32-.6 2.594.317 2.09 2.337l-4.921 23.19c-.344 1.649-1.34 2.043-2.719 1.282l-7.497-5.539L26 43l-.034.033c-.403.392-.736.717-1.466.717z" fill="#fff"/></g><defs><clipPath id="ga"><path fill="#fff" d="M0 0h60v60H0z"/></clipPath></defs></svg><svg fill="none" viewBox="0 0 60 60" id="twitter" xmlns="http://www.w3.org/2000/svg"><g clip-path="url(#ha)"><path fill-rule="evenodd" clip-rule="evenodd" d="M30 0C13.431 0 0 13.431 0 30c0 16.569 13.431 30 30 30 16.569 0 30-13.431 30-30C60 13.431 46.569 0 30 0zm-.835 25.422-.063-1.038c-.19-2.69 1.468-5.148 4.091-6.1.966-.34 2.602-.382 3.673-.086.42.128 1.217.551 1.783.933l1.029.699 1.133-.36c.63-.191 1.469-.509 1.846-.72.357-.192.672-.297.672-.234 0 .36-.776 1.589-1.427 2.267-.881.953-.63 1.038 1.154.402 1.07-.36 1.091-.36.882.043-.127.212-.777.953-1.47 1.631-1.175 1.165-1.238 1.292-1.238 2.267 0 1.504-.713 4.64-1.426 6.355-1.323 3.22-4.155 6.547-6.988 8.22-3.987 2.352-9.296 2.945-13.766 1.568-1.49-.466-4.05-1.653-4.05-1.864 0-.064.776-.149 1.72-.17a11.814 11.814 0 0 0 5.625-1.568l1.133-.678-1.301-.444c-1.847-.636-3.505-2.098-3.924-3.475-.126-.445-.084-.466 1.09-.466l1.218-.021-1.028-.487c-1.218-.615-2.33-1.653-2.875-2.712-.399-.763-.903-2.69-.756-2.839.042-.063.483.064.987.233 1.448.53 1.636.403.797-.487-1.574-1.61-2.056-4.004-1.301-6.27l.357-1.018 1.385 1.377c2.833 2.776 6.17 4.428 9.988 4.915l1.05.127z" fill="#fff"/></g><defs><clipPath id="ha"><path fill="#fff" d="M0 0h60v60H0z"/></clipPath></defs></svg><svg fill="none" viewBox="0 0 60 60" id="viber" xmlns="http://www.w3.org/2000/svg"><g clip-path="url(#ia)" fill-rule="evenodd" clip-rule="evenodd" fill="#fff"><path d="M0 30c0 16.569 13.431 30 30 30 16.569 0 30-13.431 30-30C60 13.431 46.569 0 30 0 13.431 0 0 13.431 0 30zm48.828-1.148c-.004 9.833-8.004 17.835-17.84 17.839h-.006a17.825 17.825 0 0 1-8.525-2.172L13 47l2.53-9.244a17.807 17.807 0 0 1-2.38-8.918C13.152 19.002 21.155 11 30.988 11a17.724 17.724 0 0 1 12.619 5.232 17.73 17.73 0 0 1 5.22 12.62z"/><path d="m17.283 42.762 5.612-1.472.541.321a14.805 14.805 0 0 0 7.547 2.067h.006c8.172 0 14.823-6.652 14.827-14.827a14.738 14.738 0 0 0-4.339-10.49 14.726 14.726 0 0 0-10.482-4.348c-8.179 0-14.83 6.65-14.834 14.826a14.79 14.79 0 0 0 2.267 7.89l.353.561-1.498 5.472zm22.082-10.07c.311.15.521.252.611.402.111.186.111 1.078-.26 2.12-.372 1.04-2.152 1.99-3.009 2.119-.767.115-1.74.163-2.807-.177a25.59 25.59 0 0 1-2.541-.939c-4.179-1.804-7.003-5.854-7.536-6.62a5.57 5.57 0 0 0-.079-.11l-.003-.005c-.236-.315-1.817-2.424-1.817-4.606 0-2.053 1.009-3.13 1.473-3.625l.088-.094c.408-.446.891-.557 1.188-.557.297 0 .595.002.854.015.032.002.066.002.1.002.26-.002.584-.004.903.764.123.295.303.733.493 1.194.383.934.807 1.966.881 2.115.112.223.186.484.038.781l-.063.127c-.112.228-.194.396-.383.617l-.229.274c-.153.187-.306.374-.44.507-.223.222-.455.463-.195.91.26.446 1.154 1.905 2.48 3.087a11.511 11.511 0 0 0 3.29 2.08c.122.053.221.096.294.132.446.224.706.186.966-.111.26-.298 1.114-1.302 1.411-1.748.297-.446.594-.372 1.003-.223.409.149 2.6 1.227 3.046 1.45l.243.12z"/></g><defs><clipPath id="ia"><path fill="#fff" d="M0 0h60v60H0z"/></clipPath></defs></svg></svg>